<svg xmlns="http://www.w3.org/2000/svg" viewBox="0 0 1100 780" width="1100" height="780" font-family="'Segoe UI', Arial, sans-serif">
  <defs>
    <!-- Background gradient -->
    <linearGradient id="bgGrad" x1="0%" y1="0%" x2="100%" y2="100%">
      <stop offset="0%" style="stop-color:#060b18;stop-opacity:1" />
      <stop offset="100%" style="stop-color:#0d1526;stop-opacity:1" />
    </linearGradient>

    <!-- Layer gradients -->
    <linearGradient id="edgeGrad" x1="0%" y1="0%" x2="100%" y2="100%">
      <stop offset="0%" style="stop-color:#0f2027;stop-opacity:1" />
      <stop offset="100%" style="stop-color:#1a3040;stop-opacity:1" />
    </linearGradient>
    <linearGradient id="gatewayGrad" x1="0%" y1="0%" x2="100%" y2="100%">
      <stop offset="0%" style="stop-color:#0e1f2e;stop-opacity:1" />
      <stop offset="100%" style="stop-color:#152838;stop-opacity:1" />
    </linearGradient>
    <linearGradient id="cloudGrad" x1="0%" y1="0%" x2="100%" y2="100%">
      <stop offset="0%" style="stop-color:#1a0e2e;stop-opacity:1" />
      <stop offset="100%" style="stop-color:#2a1840;stop-opacity:1" />
    </linearGradient>
    <linearGradient id="appGrad" x1="0%" y1="0%" x2="100%" y2="100%">
      <stop offset="0%" style="stop-color:#0e2020;stop-opacity:1" />
      <stop offset="100%" style="stop-color:#152f2f;stop-opacity:1" />
    </linearGradient>

    <!-- Component gradients -->
    <linearGradient id="dhtGrad" x1="0%" y1="0%" x2="0%" y2="100%">
      <stop offset="0%" style="stop-color:#1e3a5f" />
      <stop offset="100%" style="stop-color:#0f2040" />
    </linearGradient>
    <linearGradient id="arduinoGrad" x1="0%" y1="0%" x2="0%" y2="100%">
      <stop offset="0%" style="stop-color:#005c70" />
      <stop offset="100%" style="stop-color:#003a48" />
    </linearGradient>
    <linearGradient id="lcdGrad" x1="0%" y1="0%" x2="0%" y2="100%">
      <stop offset="0%" style="stop-color:#1a3a1a" />
      <stop offset="100%" style="stop-color:#0f2a0f" />
    </linearGradient>
    <linearGradient id="bridgeGrad" x1="0%" y1="0%" x2="0%" y2="100%">
      <stop offset="0%" style="stop-color:#4a3000" />
      <stop offset="100%" style="stop-color:#2e1e00" />
    </linearGradient>
    <linearGradient id="brokerGrad" x1="0%" y1="0%" x2="0%" y2="100%">
      <stop offset="0%" style="stop-color:#4a1a1a" />
      <stop offset="100%" style="stop-color:#2e0f0f" />
    </linearGradient>
    <linearGradient id="dashGrad" x1="0%" y1="0%" x2="0%" y2="100%">
      <stop offset="0%" style="stop-color:#003a3a" />
      <stop offset="100%" style="stop-color:#002020" />
    </linearGradient>

    <!-- Arrow marker -->
    <marker id="arrowCyan" markerWidth="10" markerHeight="7" refX="9" refY="3.5" orient="auto">
      <polygon points="0 0, 10 3.5, 0 7" fill="#00d4aa" />
    </marker>
    <marker id="arrowAmber" markerWidth="10" markerHeight="7" refX="9" refY="3.5" orient="auto">
      <polygon points="0 0, 10 3.5, 0 7" fill="#f59e0b" />
    </marker>
    <marker id="arrowRed" markerWidth="10" markerHeight="7" refX="9" refY="3.5" orient="auto">
      <polygon points="0 0, 10 3.5, 0 7" fill="#ef4444" />
    </marker>
    <marker id="arrowGreen" markerWidth="10" markerHeight="7" refX="9" refY="3.5" orient="auto">
      <polygon points="0 0, 10 3.5, 0 7" fill="#22c55e" />
    </marker>
    <marker id="arrowBlue" markerWidth="10" markerHeight="7" refX="9" refY="3.5" orient="auto">
      <polygon points="0 0, 10 3.5, 0 7" fill="#60a5fa" />
    </marker>

    <!-- Glow filters -->
    <filter id="glowCyan" x="-20%" y="-20%" width="140%" height="140%">
      <feGaussianBlur stdDeviation="3" result="coloredBlur" />
      <feMerge>
        <feMergeNode in="coloredBlur" />
        <feMergeNode in="SourceGraphic" />
      </feMerge>
    </filter>
    <filter id="glowAmber" x="-20%" y="-20%" width="140%" height="140%">
      <feGaussianBlur stdDeviation="3" result="coloredBlur" />
      <feMerge>
        <feMergeNode in="coloredBlur" />
        <feMergeNode in="SourceGraphic" />
      </feMerge>
    </filter>
    <filter id="dropShadow" x="-10%" y="-10%" width="120%" height="120%">
      <feDropShadow dx="0" dy="4" stdDeviation="6" flood-color="#000" flood-opacity="0.5" />
    </filter>
  </defs>

  <!-- ═══════════════════════════════════════════════════════ -->
  <!-- BACKGROUND -->
  <!-- ═══════════════════════════════════════════════════════ -->
  <rect width="1100" height="780" fill="url(#bgGrad)" />

  <!-- Subtle grid pattern -->
  <g opacity="0.04">
    <line x1="0" y1="0" x2="0" y2="780" stroke="#00d4aa" stroke-width="0.5"/>
    <line x1="100" y1="0" x2="100" y2="780" stroke="#00d4aa" stroke-width="0.5"/>
    <line x1="200" y1="0" x2="200" y2="780" stroke="#00d4aa" stroke-width="0.5"/>
    <line x1="300" y1="0" x2="300" y2="780" stroke="#00d4aa" stroke-width="0.5"/>
    <line x1="400" y1="0" x2="400" y2="780" stroke="#00d4aa" stroke-width="0.5"/>
    <line x1="500" y1="0" x2="500" y2="780" stroke="#00d4aa" stroke-width="0.5"/>
    <line x1="600" y1="0" x2="600" y2="780" stroke="#00d4aa" stroke-width="0.5"/>
    <line x1="700" y1="0" x2="700" y2="780" stroke="#00d4aa" stroke-width="0.5"/>
    <line x1="800" y1="0" x2="800" y2="780" stroke="#00d4aa" stroke-width="0.5"/>
    <line x1="900" y1="0" x2="900" y2="780" stroke="#00d4aa" stroke-width="0.5"/>
    <line x1="1000" y1="0" x2="1000" y2="780" stroke="#00d4aa" stroke-width="0.5"/>
    <line x1="0" y1="0" x2="1100" y2="0" stroke="#00d4aa" stroke-width="0.5"/>
    <line x1="0" y1="100" x2="1100" y2="100" stroke="#00d4aa" stroke-width="0.5"/>
    <line x1="0" y1="200" x2="1100" y2="200" stroke="#00d4aa" stroke-width="0.5"/>
    <line x1="0" y1="300" x2="1100" y2="300" stroke="#00d4aa" stroke-width="0.5"/>
    <line x1="0" y1="400" x2="1100" y2="400" stroke="#00d4aa" stroke-width="0.5"/>
    <line x1="0" y1="500" x2="1100" y2="500" stroke="#00d4aa" stroke-width="0.5"/>
    <line x1="0" y1="600" x2="1100" y2="600" stroke="#00d4aa" stroke-width="0.5"/>
    <line x1="0" y1="700" x2="1100" y2="700" stroke="#00d4aa" stroke-width="0.5"/>
  </g>

  <!-- ═══════════════════════════════════════════════════════ -->
  <!-- TITLE BAR -->
  <!-- ═══════════════════════════════════════════════════════ -->
  <rect x="0" y="0" width="1100" height="60" fill="#080d1a" opacity="0.9" />
  <line x1="0" y1="60" x2="1100" y2="60" stroke="#00d4aa" stroke-width="1.5" opacity="0.6"/>

  <!-- Hexagon icon -->
  <polygon points="28,18 38,12 48,18 48,30 38,36 28,30" fill="none" stroke="#00d4aa" stroke-width="1.5" filter="url(#glowCyan)"/>
  <polygon points="31,20 38,16 45,20 45,28 38,32 31,28" fill="#00d4aa" opacity="0.3"/>

  <text x="62" y="26" fill="#00d4aa" font-size="11" font-weight="600" letter-spacing="3" text-anchor="start">DHT11 IOT MONITORING SYSTEM</text>
  <text x="62" y="46" fill="#64748b" font-size="9.5" letter-spacing="2">END-TO-END SYSTEM ARCHITECTURE DIAGRAM</text>

  <!-- Right side meta -->
  <text x="1070" y="26" fill="#64748b" font-size="9" text-anchor="end" letter-spacing="1">STUDENT: NDIZEYE HERVE</text>
  <text x="1070" y="44" fill="#64748b" font-size="9" text-anchor="end" letter-spacing="1">RCA — YEAR 2 · EMBEDDED SYSTEMS</text>

  <!-- ═══════════════════════════════════════════════════════ -->
  <!-- LAYER PANELS (horizontal bands) -->
  <!-- ═══════════════════════════════════════════════════════ -->

  <!-- Layer 1: Hardware Node -->
  <rect x="20" y="80" width="250" height="660" rx="12" fill="url(#edgeGrad)" stroke="#1e4060" stroke-width="1.5" filter="url(#dropShadow)" opacity="0.95"/>
  <rect x="20" y="80" width="250" height="4" rx="2" fill="#38bdf8" opacity="0.8"/>
  <text x="145" y="103" fill="#38bdf8" font-size="9" font-weight="700" letter-spacing="3" text-anchor="middle">LAYER 1</text>
  <text x="145" y="120" fill="#e2e8f0" font-size="13" font-weight="700" text-anchor="middle">Hardware Node</text>
  <text x="145" y="136" fill="#64748b" font-size="9" letter-spacing="1" text-anchor="middle">PHYSICAL SENSING LAYER</text>

  <!-- Layer 2: Local PC -->
  <rect x="290" y="80" width="250" height="660" rx="12" fill="url(#gatewayGrad)" stroke="#1e3a50" stroke-width="1.5" filter="url(#dropShadow)" opacity="0.95"/>
  <rect x="290" y="80" width="250" height="4" rx="2" fill="#f59e0b" opacity="0.8"/>
  <text x="415" y="103" fill="#f59e0b" font-size="9" font-weight="700" letter-spacing="3" text-anchor="middle">LAYER 2</text>
  <text x="415" y="120" fill="#e2e8f0" font-size="13" font-weight="700" text-anchor="middle">Local PC (Gateway)</text>
  <text x="415" y="136" fill="#64748b" font-size="9" letter-spacing="1" text-anchor="middle">PROTOCOL TRANSLATION LAYER</text>

  <!-- Layer 3: VPS Broker -->
  <rect x="560" y="80" width="250" height="660" rx="12" fill="url(#cloudGrad)" stroke="#3a1a50" stroke-width="1.5" filter="url(#dropShadow)" opacity="0.95"/>
  <rect x="560" y="80" width="250" height="4" rx="2" fill="#ef4444" opacity="0.8"/>
  <text x="685" y="103" fill="#ef4444" font-size="9" font-weight="700" letter-spacing="3" text-anchor="middle">LAYER 3</text>
  <text x="685" y="120" fill="#e2e8f0" font-size="13" font-weight="700" text-anchor="middle">VPS Cloud (Broker)</text>
  <text x="685" y="136" fill="#64748b" font-size="9" letter-spacing="1" text-anchor="middle">MESSAGE BROKER LAYER</text>

  <!-- Layer 4: Frontend -->
  <rect x="830" y="80" width="250" height="660" rx="12" fill="url(#appGrad)" stroke="#1a3a3a" stroke-width="1.5" filter="url(#dropShadow)" opacity="0.95"/>
  <rect x="830" y="80" width="250" height="4" rx="2" fill="#00d4aa" opacity="0.8"/>
  <text x="955" y="103" fill="#00d4aa" font-size="9" font-weight="700" letter-spacing="3" text-anchor="middle">LAYER 4</text>
  <text x="955" y="120" fill="#e2e8f0" font-size="13" font-weight="700" text-anchor="middle">Web Frontend</text>
  <text x="955" y="136" fill="#64748b" font-size="9" letter-spacing="1" text-anchor="middle">APPLICATION LAYER</text>

  <!-- ═══════════════════════════════════════════════════════ -->
  <!-- COMPONENT: DHT11 Sensor -->
  <!-- ═══════════════════════════════════════════════════════ -->
  <rect x="50" y="165" width="190" height="120" rx="10" fill="url(#dhtGrad)" stroke="#38bdf8" stroke-width="1.5" filter="url(#dropShadow)"/>
  <!-- Icon: sensor chip shape -->
  <rect x="108" y="180" width="54" height="60" rx="4" fill="none" stroke="#38bdf8" stroke-width="1.5"/>
  <rect x="114" y="186" width="42" height="48" rx="2" fill="#38bdf8" opacity="0.15"/>
  <!-- Pins left -->
  <line x1="96" y1="197" x2="108" y2="197" stroke="#38bdf8" stroke-width="2"/>
  <line x1="96" y1="210" x2="108" y2="210" stroke="#38bdf8" stroke-width="2"/>
  <line x1="96" y1="223" x2="108" y2="223" stroke="#38bdf8" stroke-width="2"/>
  <!-- Pins right -->
  <line x1="162" y1="197" x2="174" y2="197" stroke="#38bdf8" stroke-width="2"/>
  <line x1="162" y1="210" x2="174" y2="210" stroke="#38bdf8" stroke-width="2"/>
  <line x1="162" y1="223" x2="174" y2="223" stroke="#38bdf8" stroke-width="2"/>
  <!-- Label inside chip -->
  <text x="135" y="206" fill="#38bdf8" font-size="7.5" font-weight="700" text-anchor="middle">DHT</text>
  <text x="135" y="217" fill="#38bdf8" font-size="7.5" font-weight="700" text-anchor="middle">11</text>
  <text x="135" y="228" fill="#38bdf8" font-size="6" text-anchor="middle">SENSOR</text>

  <text x="145" y="260" fill="#e2e8f0" font-size="12" font-weight="700" text-anchor="middle">DHT11 Sensor</text>
  <!-- Specs -->
  <text x="145" y="274" fill="#38bdf8" font-size="8.5" text-anchor="middle">DATA → Pin 2 | VCC: 5V | GND</text>

  <!-- Temp/Humidity badges -->
  <rect x="60" y="279" width="75" height="17" rx="4" fill="#0f2040" stroke="#38bdf8" stroke-width="0.8" opacity="0.8"/>
  <text x="97" y="291" fill="#38bdf8" font-size="8" text-anchor="middle">🌡 Temperature</text>
  <rect x="145" y="279" width="80" height="17" rx="4" fill="#0f2040" stroke="#38bdf8" stroke-width="0.8" opacity="0.8"/>
  <text x="185" y="291" fill="#38bdf8" font-size="8" text-anchor="middle">Accuracy ±2°C</text>

  <!-- ═══════════════════════════════════════════════════════ -->
  <!-- COMPONENT: Arduino MCU -->
  <!-- ═══════════════════════════════════════════════════════ -->
  <rect x="50" y="340" width="190" height="150" rx="10" fill="url(#arduinoGrad)" stroke="#00d4aa" stroke-width="2" filter="url(#dropShadow)"/>
  <!-- Arduino board shape -->
  <rect x="78" y="358" width="114" height="76" rx="4" fill="none" stroke="#00d4aa" stroke-width="1.5"/>
  <rect x="82" y="362" width="106" height="68" rx="2" fill="#00d4aa" opacity="0.08"/>
  <!-- USB port -->
  <rect x="66" y="376" width="12" height="20" rx="2" fill="#00d4aa" opacity="0.5"/>
  <!-- MCU chip -->
  <rect x="108" y="373" width="44" height="34" rx="2" fill="#00d4aa" opacity="0.25"/>
  <rect x="112" y="377" width="36" height="26" rx="1" fill="#00d4aa" opacity="0.3"/>
  <text x="130" y="390" fill="#00d4aa" font-size="5.5" font-weight="700" text-anchor="middle">ATMEGA</text>
  <text x="130" y="399" fill="#00d4aa" font-size="5.5" font-weight="700" text-anchor="middle">328P</text>
  <!-- Pins bottom row -->
  <line x1="90" y1="434" x2="90" y2="442" stroke="#00d4aa" stroke-width="1.5"/>
  <line x1="100" y1="434" x2="100" y2="442" stroke="#00d4aa" stroke-width="1.5"/>
  <line x1="110" y1="434" x2="110" y2="442" stroke="#00d4aa" stroke-width="1.5"/>
  <line x1="120" y1="434" x2="120" y2="442" stroke="#00d4aa" stroke-width="1.5"/>
  <line x1="130" y1="434" x2="130" y2="442" stroke="#00d4aa" stroke-width="1.5"/>
  <line x1="140" y1="434" x2="140" y2="442" stroke="#00d4aa" stroke-width="1.5"/>
  <line x1="150" y1="434" x2="150" y2="442" stroke="#00d4aa" stroke-width="1.5"/>
  <line x1="160" y1="434" x2="160" y2="442" stroke="#00d4aa" stroke-width="1.5"/>
  <line x1="170" y1="434" x2="170" y2="442" stroke="#00d4aa" stroke-width="1.5"/>
  <line x1="180" y1="434" x2="180" y2="442" stroke="#00d4aa" stroke-width="1.5"/>

  <text x="145" y="462" fill="#e2e8f0" font-size="12" font-weight="700" text-anchor="middle">Arduino MCU</text>
  <text x="145" y="476" fill="#00d4aa" font-size="8.5" text-anchor="middle">ATmega328P · 9600 baud</text>
  <!-- Badge -->
  <rect x="68" y="480" width="154" height="16" rx="4" fill="#003a48" stroke="#00d4aa" stroke-width="0.8"/>
  <text x="145" y="492" fill="#00d4aa" font-size="8" text-anchor="middle">Reads sensor every 5 seconds</text>

  <!-- ═══════════════════════════════════════════════════════ -->
  <!-- COMPONENT: 16x2 LCD -->
  <!-- ═══════════════════════════════════════════════════════ -->
  <rect x="50" y="545" width="190" height="135" rx="10" fill="url(#lcdGrad)" stroke="#22c55e" stroke-width="1.5" filter="url(#dropShadow)"/>
  <!-- LCD screen -->
  <rect x="65" y="562" width="160" height="62" rx="4" fill="#0a1a0a" stroke="#22c55e" stroke-width="1"/>
  <rect x="69" y="566" width="152" height="54" rx="2" fill="#0d2e0d" opacity="0.8"/>
  <!-- LCD text rows -->
  <text x="75" y="584" fill="#22c55e" font-size="8" font-family="'Courier New', monospace">Ndizeye Herve   </text>
  <line x1="69" y1="591" x2="221" y2="591" stroke="#22c55e" stroke-width="0.4" opacity="0.3"/>
  <text x="75" y="608" fill="#22c55e" font-size="8" font-family="'Courier New', monospace">Temp: 24.5°C    </text>
  <!-- I2C label -->
  <text x="145" y="642" fill="#e2e8f0" font-size="12" font-weight="700" text-anchor="middle">16×2 I²C LCD</text>
  <text x="145" y="656" fill="#22c55e" font-size="8.5" text-anchor="middle">SDA: A4 · SCL: A5 · Addr: 0x27</text>
  <text x="145" y="670" fill="#64748b" font-size="8" text-anchor="middle">Local display output only</text>

  <!-- ═══════════════════════════════════════════════════════ -->
  <!-- COMPONENT: Python Bridge -->
  <!-- ═══════════════════════════════════════════════════════ -->
  <rect x="315" y="280" width="200" height="200" rx="10" fill="url(#bridgeGrad)" stroke="#f59e0b" stroke-width="2" filter="url(#dropShadow)"/>
  <!-- Python snake icon simplified -->
  <circle cx="390" cy="315" r="22" fill="none" stroke="#f59e0b" stroke-width="1.5"/>
  <text x="390" y="322" fill="#f59e0b" font-size="26" text-anchor="middle">🐍</text>

  <text x="415" y="360" fill="#e2e8f0" font-size="12" font-weight="700" text-anchor="middle">Python Bridge</text>
  <text x="415" y="374" fill="#f59e0b" font-size="9" font-weight="600" text-anchor="middle">bridge.py</text>

  <!-- Spec rows -->
  <rect x="323" y="382" width="184" height="14" rx="3" fill="#2e1e00" stroke="#f59e0b" stroke-width="0.5" opacity="0.8"/>
  <text x="415" y="393" fill="#f59e0b" font-size="8" text-anchor="middle">📦 pyserial · paho-mqtt</text>

  <rect x="323" y="400" width="184" height="14" rx="3" fill="#2e1e00" stroke="#f59e0b" stroke-width="0.5" opacity="0.8"/>
  <text x="415" y="411" fill="#f59e0b" font-size="8" text-anchor="middle">PORT: COM12 · BAUD: 9600</text>

  <rect x="323" y="418" width="184" height="14" rx="3" fill="#2e1e00" stroke="#f59e0b" stroke-width="0.5" opacity="0.8"/>
  <text x="415" y="429" fill="#f59e0b" font-size="8" text-anchor="middle">TOPIC: sensors/herve/dht</text>

  <rect x="323" y="436" width="184" height="14" rx="3" fill="#2e1e00" stroke="#f59e0b" stroke-width="0.5" opacity="0.8"/>
  <text x="415" y="447" fill="#94a3b8" font-size="8" text-anchor="middle">Appends Unix timestamp</text>

  <!-- LWT Badge -->
  <rect x="323" y="456" width="184" height="18" rx="4" fill="#3a2000" stroke="#f59e0b" stroke-width="1"/>
  <text x="415" y="469" fill="#f59e0b" font-size="8.5" text-anchor="middle">⚡ LWT: iot/status/herve/arduino_001</text>

  <!-- ═══════════════════════════════════════════════════════ -->
  <!-- COMPONENT: MQTT Broker -->
  <!-- ═══════════════════════════════════════════════════════ -->
  <rect x="585" y="280" width="200" height="200" rx="10" fill="url(#brokerGrad)" stroke="#ef4444" stroke-width="2" filter="url(#dropShadow)"/>
  <!-- Server icon -->
  <rect x="643" y="298" width="84" height="14" rx="3" fill="none" stroke="#ef4444" stroke-width="1.5"/>
  <circle cx="720" cy="305" r="3" fill="#ef4444"/>
  <rect x="643" y="316" width="84" height="14" rx="3" fill="none" stroke="#ef4444" stroke-width="1.5"/>
  <circle cx="720" cy="323" r="3" fill="#ef4444"/>
  <rect x="643" y="334" width="84" height="14" rx="3" fill="none" stroke="#ef4444" stroke-width="1.5"/>
  <circle cx="720" cy="341" r="3" fill="#ef4444"/>

  <text x="685" y="368" fill="#e2e8f0" font-size="12" font-weight="700" text-anchor="middle">MQTT Broker</text>
  <text x="685" y="382" fill="#ef4444" font-size="9" font-weight="600" text-anchor="middle">broker.benax.rw</text>

  <rect x="593" y="392" width="184" height="14" rx="3" fill="#2e0f0f" stroke="#ef4444" stroke-width="0.5" opacity="0.8"/>
  <text x="685" y="403" fill="#ef4444" font-size="8" text-anchor="middle">TCP Port 1883 (MQTT)</text>

  <rect x="593" y="410" width="184" height="14" rx="3" fill="#2e0f0f" stroke="#ef4444" stroke-width="0.5" opacity="0.8"/>
  <text x="685" y="421" fill="#ef4444" font-size="8" text-anchor="middle">WebSocket Port 9001 (WS)</text>

  <rect x="593" y="428" width="184" height="14" rx="3" fill="#2e0f0f" stroke="#ef4444" stroke-width="0.5" opacity="0.8"/>
  <text x="685" y="439" fill="#94a3b8" font-size="8" text-anchor="middle">QoS 1 · Retain enabled</text>

  <rect x="593" y="446" width="184" height="28" rx="4" fill="#3a0f0f" stroke="#ef4444" stroke-width="1"/>
  <text x="685" y="458" fill="#ef4444" font-size="8" font-weight="600" text-anchor="middle">Topics:</text>
  <text x="685" y="469" fill="#94a3b8" font-size="7.5" text-anchor="middle">sensors/herve/dht · iot/status/herve/arduino_001</text>

  <!-- ═══════════════════════════════════════════════════════ -->
  <!-- COMPONENT: Web Dashboard -->
  <!-- ═══════════════════════════════════════════════════════ -->
  <rect x="855" y="280" width="200" height="200" rx="10" fill="url(#dashGrad)" stroke="#00d4aa" stroke-width="2" filter="url(#dropShadow)"/>
  <!-- Browser icon -->
  <rect x="879" y="296" width="152" height="94" rx="5" fill="none" stroke="#00d4aa" stroke-width="1.5"/>
  <rect x="879" y="296" width="152" height="15" rx="5" fill="#00d4aa" opacity="0.2"/>
  <!-- Browser dots -->
  <circle cx="890" cy="303" r="2.5" fill="#ef4444"/>
  <circle cx="900" cy="303" r="2.5" fill="#f59e0b"/>
  <circle cx="910" cy="303" r="2.5" fill="#22c55e"/>
  <!-- URL bar -->
  <rect x="920" y="298" width="100" height="10" rx="3" fill="#002020" stroke="#00d4aa" stroke-width="0.5"/>
  <!-- Browser content mockup -->
  <rect x="886" y="315" width="138" height="10" rx="2" fill="#00d4aa" opacity="0.15"/>
  <rect x="886" y="328" width="80" height="24" rx="2" fill="#00d4aa" opacity="0.1"/>
  <text x="926" y="344" fill="#00d4aa" font-size="9" font-weight="700" text-anchor="middle">24.5°C</text>
  <rect x="886" y="356" width="138" height="6" rx="1" fill="#00d4aa" opacity="0.1"/>
  <rect x="886" y="365" width="100" height="4" rx="1" fill="#00d4aa" opacity="0.07"/>
  <rect x="886" y="372" width="120" height="4" rx="1" fill="#00d4aa" opacity="0.07"/>

  <text x="955" y="408" fill="#e2e8f0" font-size="12" font-weight="700" text-anchor="middle">Web Dashboard</text>
  <text x="955" y="422" fill="#00d4aa" font-size="9" font-weight="600" text-anchor="middle">dashboard.html</text>

  <rect x="863" y="430" width="184" height="14" rx="3" fill="#002020" stroke="#00d4aa" stroke-width="0.5" opacity="0.8"/>
  <text x="955" y="441" fill="#00d4aa" font-size="8" text-anchor="middle">MQTT.js · WebSocket ws://</text>

  <rect x="863" y="448" width="184" height="14" rx="3" fill="#002020" stroke="#00d4aa" stroke-width="0.5" opacity="0.8"/>
  <text x="955" y="459" fill="#94a3b8" font-size="8" text-anchor="middle">Glassmorphic UI · Live temp card</text>

  <rect x="863" y="466" width="184" height="14" rx="3" fill="#002020" stroke="#00d4aa" stroke-width="0.5" opacity="0.8"/>
  <text x="955" y="477" fill="#94a3b8" font-size="8" text-anchor="middle">Event log · Connection status badge</text>

  <!-- ═══════════════════════════════════════════════════════ -->
  <!-- DATA FLOW ARROWS -->
  <!-- ═══════════════════════════════════════════════════════ -->

  <!-- Arrow 1: DHT11 → Arduino (Pin 2) -->
  <path d="M 145 285 L 145 340" stroke="#38bdf8" stroke-width="2" stroke-dasharray="5,3" marker-end="url(#arrowBlue)" filter="url(#glowCyan)"/>
  <rect x="73" y="306" width="144" height="16" rx="4" fill="#060b18" stroke="#38bdf8" stroke-width="0.8" opacity="0.9"/>
  <text x="145" y="318" fill="#38bdf8" font-size="8" text-anchor="middle" font-weight="600">DATA pin 2 · Analog Signal</text>

  <!-- Arrow 2: Arduino → LCD (I2C) -->
  <path d="M 145 490 L 145 545" stroke="#22c55e" stroke-width="2" stroke-dasharray="5,3" marker-end="url(#arrowGreen)"/>
  <rect x="60" y="510" width="170" height="16" rx="4" fill="#060b18" stroke="#22c55e" stroke-width="0.8" opacity="0.9"/>
  <text x="145" y="522" fill="#22c55e" font-size="8" text-anchor="middle" font-weight="600">I²C Bus · SDA/SCL · Addr 0x27</text>

  <!-- Arrow 3: Arduino → Python Bridge (USB Serial) -->
  <path d="M 240 415 L 315 380" stroke="#f59e0b" stroke-width="2.5" marker-end="url(#arrowAmber)" filter="url(#glowAmber)"/>
  <rect x="235" y="385" width="96" height="28" rx="5" fill="#060b18" stroke="#f59e0b" stroke-width="1" opacity="0.95"/>
  <text x="283" y="397" fill="#f59e0b" font-size="8" text-anchor="middle" font-weight="700">USB SERIAL</text>
  <text x="283" y="407" fill="#94a3b8" font-size="7.5" text-anchor="middle">JSON · 9600 baud</text>

  <!-- JSON Payload callout for serial -->
  <rect x="246" y="430" width="130" height="40" rx="6" fill="#1a1000" stroke="#f59e0b" stroke-width="1" opacity="0.9"/>
  <text x="311" y="445" fill="#f59e0b" font-size="7.5" font-weight="700" text-anchor="middle">SERIAL PAYLOAD</text>
  <text x="311" y="457" fill="#94a3b8" font-size="7" text-anchor="middle" font-family="'Courier New', monospace">{"temperature": 24.5}</text>
  <text x="311" y="467" fill="#64748b" font-size="7" text-anchor="middle">Every 5 seconds</text>

  <!-- Arrow 4: Python Bridge → MQTT Broker (TCP) -->
  <path d="M 515 380 L 585 380" stroke="#ef4444" stroke-width="2.5" marker-end="url(#arrowRed)"/>
  <rect x="520" y="363" width="60" height="28" rx="5" fill="#060b18" stroke="#ef4444" stroke-width="1" opacity="0.95"/>
  <text x="550" y="376" fill="#ef4444" font-size="8" text-anchor="middle" font-weight="700">MQTT</text>
  <text x="550" y="386" fill="#94a3b8" font-size="7.5" text-anchor="middle">TCP 1883</text>

  <!-- JSON Payload callout for MQTT -->
  <rect x="516" y="410" width="134" height="50" rx="6" fill="#1a0000" stroke="#ef4444" stroke-width="1" opacity="0.9"/>
  <text x="583" y="424" fill="#ef4444" font-size="7.5" font-weight="700" text-anchor="middle">MQTT PAYLOAD</text>
  <text x="583" y="436" fill="#94a3b8" font-size="7" text-anchor="middle" font-family="'Courier New', monospace">{"temperature":24.5,</text>
  <text x="583" y="447" fill="#94a3b8" font-size="7" text-anchor="middle" font-family="'Courier New', monospace"> "timestamp":1781600000}</text>
  <text x="583" y="457" fill="#64748b" font-size="7" text-anchor="middle">QoS 1 · Retained</text>

  <!-- Arrow 5: MQTT Broker → Web Dashboard (WebSocket) -->
  <path d="M 785 380 L 855 380" stroke="#00d4aa" stroke-width="2.5" marker-end="url(#arrowCyan)" filter="url(#glowCyan)"/>
  <rect x="790" y="363" width="60" height="28" rx="5" fill="#060b18" stroke="#00d4aa" stroke-width="1" opacity="0.95"/>
  <text x="820" y="376" fill="#00d4aa" font-size="8" text-anchor="middle" font-weight="700">WS</text>
  <text x="820" y="386" fill="#94a3b8" font-size="7.5" text-anchor="middle">Port 9001</text>

  <!-- ═══════════════════════════════════════════════════════ -->
  <!-- LEGEND / KEY (bottom) -->
  <!-- ═══════════════════════════════════════════════════════ -->
  <rect x="20" y="710" width="1060" height="50" rx="8" fill="#080d1a" stroke="#1e2a40" stroke-width="1" opacity="0.9"/>
  <text x="40" y="726" fill="#64748b" font-size="8.5" font-weight="700" letter-spacing="2">LEGEND:</text>

  <!-- USB Serial -->
  <line x1="110" y1="720" x2="145" y2="720" stroke="#f59e0b" stroke-width="2" stroke-dasharray="4,2"/>
  <polygon points="145,717 152,720 145,723" fill="#f59e0b"/>
  <text x="160" y="724" fill="#94a3b8" font-size="8.5">USB Serial (JSON)</text>

  <!-- I2C -->
  <line x1="265" y1="720" x2="300" y2="720" stroke="#22c55e" stroke-width="2" stroke-dasharray="4,2"/>
  <polygon points="300,717 307,720 300,723" fill="#22c55e"/>
  <text x="315" y="724" fill="#94a3b8" font-size="8.5">I²C Bus</text>

  <!-- MQTT TCP -->
  <line x1="390" y1="720" x2="425" y2="720" stroke="#ef4444" stroke-width="2"/>
  <polygon points="425,717 432,720 425,723" fill="#ef4444"/>
  <text x="440" y="724" fill="#94a3b8" font-size="8.5">MQTT / TCP</text>

  <!-- WebSocket -->
  <line x1="535" y1="720" x2="570" y2="720" stroke="#00d4aa" stroke-width="2"/>
  <polygon points="570,717 577,720 570,723" fill="#00d4aa"/>
  <text x="585" y="724" fill="#94a3b8" font-size="8.5">MQTT / WebSocket</text>

  <!-- Data pin -->
  <line x1="695" y1="720" x2="730" y2="720" stroke="#38bdf8" stroke-width="2" stroke-dasharray="4,2"/>
  <polygon points="730,717 737,720 730,723" fill="#38bdf8"/>
  <text x="745" y="724" fill="#94a3b8" font-size="8.5">Analog Data Pin</text>

  <!-- Second line of legend -->
  <text x="40" y="748" fill="#64748b" font-size="8.5" font-weight="700" letter-spacing="2">VERSION:</text>
  <text x="110" y="748" fill="#94a3b8" font-size="8.5">v1.0 · 2026</text>
  <text x="300" y="748" fill="#64748b" font-size="8.5" font-weight="700" letter-spacing="2">BROKER:</text>
  <text x="360" y="748" fill="#94a3b8" font-size="8.5">broker.benax.rw</text>
  <text x="530" y="748" fill="#64748b" font-size="8.5" font-weight="700" letter-spacing="2">HARDWARE:</text>
  <text x="614" y="748" fill="#94a3b8" font-size="8.5">Arduino Uno · DHT11 · 16×2 I²C LCD</text>
  <text x="850" y="748" fill="#64748b" font-size="8.5" font-weight="700" letter-spacing="2">COURSE:</text>
  <text x="910" y="748" fill="#94a3b8" font-size="8.5">Embedded Systems · RCA Year 2</text>

  <!-- ═══════════════════════════════════════════════════════ -->
  <!-- CORNER DECORATIONS -->
  <!-- ═══════════════════════════════════════════════════════ -->
  <line x1="20" y1="60" x2="20" y2="75" stroke="#00d4aa" stroke-width="2" opacity="0.5"/>
  <line x1="20" y1="75" x2="35" y2="75" stroke="#00d4aa" stroke-width="2" opacity="0.5"/>
  <line x1="1080" y1="60" x2="1080" y2="75" stroke="#00d4aa" stroke-width="2" opacity="0.5"/>
  <line x1="1065" y1="75" x2="1080" y2="75" stroke="#00d4aa" stroke-width="2" opacity="0.5"/>
</svg>
